<svg width="121" height="36" viewBox="0 0 121 36" fill="none" xmlns="http://www.w3.org/2000/svg">
<path d="M14.886 27.5384V35.4653L28.7916 27.4357V19.5097L14.886 27.5384Z" fill="#2947A9"/>
<path d="M21.1108 12.2289L27.972 8.26536L14.886 0.707733V8.63446L21.1108 12.2289Z" fill="#0B267D"/>
<path d="M9.48157 14.5956V22.5249L14.8857 25.6448V17.7191L9.48157 14.5956Z" fill="#91A1D4"/>
<path d="M28.7916 9.68616L14.886 17.7191V25.6448L28.7916 17.6152V9.68616Z" fill="#2947A9"/>
<path d="M1.80591 8.26074L8.62603 12.2474L14.8858 8.63446V0.707733L1.80591 8.26074Z" fill="#2947A9"/>
<path d="M7.84138 23.4722V13.6448L0.977783 9.68256V27.4354L14.8858 35.465V27.5381L7.84138 23.4722Z" fill="#91A1D4"/>
<path d="M54.7876 11.6098L54.1071 14.5294H49.4313L46.7532 26.0981H42.9775L45.6556 14.5294H40.9359L41.6164 11.6098H54.7876ZM53.0671 26.0981L56.6892 10.4683H60.421L58.7746 17.6247L58.4015 18.1515C58.5917 17.5368 58.8771 16.988 59.2576 16.5051C59.6381 16.0222 60.1137 15.6343 60.6845 15.3417C61.2552 15.049 61.9065 14.9026 62.6382 14.9026C63.3699 14.9026 63.9919 15.0709 64.5041 15.4075C65.031 15.7441 65.3968 16.2197 65.6017 16.8344C65.8212 17.449 65.8359 18.1808 65.6456 19.0296L63.9992 26.0981H60.2674L61.7821 19.6223C61.9138 19.0369 61.8625 18.5832 61.6284 18.2613C61.3942 17.9247 61.0137 17.7564 60.4869 17.7564C60.0918 17.7564 59.7405 17.8515 59.4332 18.0417C59.1405 18.2174 58.8844 18.4881 58.6649 18.854C58.46 19.2052 58.299 19.6442 58.1819 20.1711L56.799 26.0981H53.0671ZM72.6346 26.2957C71.5516 26.2957 70.6003 26.0908 69.7808 25.681C68.9613 25.2566 68.3247 24.6712 67.871 23.9249C67.4173 23.1785 67.1905 22.3077 67.1905 21.3126C67.1905 20.0833 67.4393 18.993 67.9368 18.0417C68.4491 17.0759 69.1662 16.3149 70.0881 15.7587C71.0248 15.2026 72.137 14.9246 73.4248 14.9246C74.4932 14.9246 75.4005 15.1294 76.1469 15.5392C76.9079 15.9344 77.4859 16.4978 77.8811 17.2295C78.2762 17.9613 78.4738 18.8247 78.4738 19.8199C78.4738 20.0979 78.4591 20.3906 78.4299 20.6979C78.4006 21.0053 78.3421 21.3053 78.2543 21.598H69.6052V19.5784H75.8176L74.7859 20.1491C74.8444 19.9442 74.881 19.7686 74.8956 19.6223C74.9102 19.4759 74.9176 19.3369 74.9176 19.2052C74.9176 18.8247 74.8517 18.5101 74.72 18.2613C74.5883 18.0125 74.4054 17.8295 74.1712 17.7125C73.937 17.5808 73.659 17.5149 73.337 17.5149C72.8102 17.5149 72.3711 17.6393 72.0199 17.8881C71.6833 18.1369 71.4126 18.4661 71.2077 18.8759C71.0028 19.2711 70.8565 19.7028 70.7686 20.1711C70.6955 20.6394 70.6589 21.0931 70.6589 21.5321C70.6589 22.0004 70.7467 22.3955 70.9223 22.7175C71.1126 23.0395 71.3613 23.2883 71.6687 23.4639C71.9906 23.6249 72.3638 23.7053 72.7882 23.7053C73.3151 23.7053 73.7395 23.5883 74.0614 23.3541C74.3834 23.1053 74.6322 22.798 74.8078 22.4321L77.8811 23.6395C77.6323 24.1956 77.2445 24.6712 76.7176 25.0664C76.2054 25.4615 75.5981 25.7688 74.8956 25.9884C74.2078 26.1932 73.4541 26.2957 72.6346 26.2957ZM80.8233 26.0981V11.6098H87.8699C89.6553 11.6245 90.9725 11.9684 91.8213 12.6416C92.6701 13.3001 93.0945 14.2587 93.0945 15.5173C93.0945 16.3368 92.853 17.0466 92.3701 17.6466C91.8871 18.232 91.1481 18.6052 90.1529 18.7662V18.7881C91.2651 18.9345 92.092 19.3223 92.6335 19.9516C93.1896 20.5662 93.4677 21.3126 93.4677 22.1907C93.4677 23.4346 93.0286 24.4005 92.1505 25.0883C91.2725 25.7615 89.9553 26.0981 88.1992 26.0981H80.8233ZM84.4674 23.4419H87.5626C88.2504 23.4419 88.7626 23.3029 89.0992 23.0248C89.4358 22.7468 89.6041 22.3443 89.6041 21.8175C89.6041 21.3053 89.4358 20.9175 89.0992 20.654C88.7626 20.376 88.2504 20.2369 87.5626 20.2369H84.4674V23.4419ZM84.4674 17.5368H87.2114C88.5577 17.5368 89.2309 17.01 89.2309 15.9563C89.2309 14.9026 88.5577 14.3758 87.2114 14.3758H84.4674V17.5368ZM100.791 14.9026C101.947 14.9026 102.957 15.1294 103.82 15.5831C104.698 16.0222 105.379 16.6734 105.862 17.5368C106.359 18.3857 106.608 19.4101 106.608 20.6101C106.608 21.8102 106.359 22.8419 105.862 23.7053C105.379 24.5542 104.698 25.2054 103.82 25.6591C102.957 26.0981 101.947 26.3176 100.791 26.3176C99.6638 26.3176 98.6614 26.0981 97.7833 25.6591C96.9052 25.2054 96.2174 24.5542 95.7198 23.7053C95.2369 22.8419 94.9954 21.8102 94.9954 20.6101C94.9954 19.4101 95.2369 18.3857 95.7198 17.5368C96.2174 16.6734 96.9052 16.0222 97.7833 15.5831C98.6614 15.1294 99.6638 14.9026 100.791 14.9026ZM100.791 17.5588C100.366 17.5588 100 17.6612 99.6931 17.8661C99.3858 18.071 99.1516 18.4003 98.9906 18.854C98.8297 19.3076 98.7492 19.893 98.7492 20.6101C98.7492 21.3272 98.8297 21.9126 98.9906 22.3663C99.1516 22.8053 99.3858 23.1346 99.6931 23.3541C100 23.559 100.366 23.6614 100.791 23.6614C101.23 23.6614 101.603 23.559 101.91 23.3541C102.218 23.1346 102.452 22.8053 102.613 22.3663C102.774 21.9126 102.854 21.3272 102.854 20.6101C102.854 19.893 102.774 19.3076 102.613 18.854C102.452 18.4003 102.218 18.071 101.91 17.8661C101.603 17.6612 101.23 17.5588 100.791 17.5588ZM111.334 15.1221L114.012 20.0613L115.241 19.9516L119.566 26.0981H115.285L112.519 21.0931H111.224L107.031 15.1221H111.334ZM119.478 15.1221L115.329 21.0492L113.946 20.9614L111.071 26.0981H106.878L111.29 19.9077L112.563 20.0833L115.285 15.1221H119.478Z" fill="#2947A9"/>
</svg>
